<svg xmlns="http://www.w3.org/2000/svg" fill="gray" viewBox="0 0 512.002 512.002" style="enable-background:new 0 0 512.002 512.002" xml:space="preserve"><path d="M507.102 205.962c-8.839-44.665-29.636-86.324-60.143-120.477-31.091-34.781-70.942-60.405-115.246-74.102C307.282 3.831 281.806.001 255.994.001c-25.826 0-51.303 3.833-75.717 11.393C135.983 25.081 96.135 50.701 65.04 85.488c-30.506 34.15-51.303 75.81-60.14 120.466C1.649 222.301 0 239.14 0 256.006c0 59.549 20.901 117.547 58.854 163.308 30.61 36.913 70.702 64.416 115.943 79.535 26.091 8.726 53.41 13.151 81.199 13.151 27.796 0 55.119-4.425 81.208-13.151 45.241-15.12 85.334-42.623 115.944-79.535 37.953-45.762 58.855-103.759 58.855-163.308-.003-16.863-1.651-33.7-4.901-50.044zm-68.266-105.647c24.404 28.642 41.722 62.555 50.533 98.893l-72.444-3.542-.744-86.481 22.655-8.87zm-11.473-12.543-27.137 10.622.866 100.606-70.394 46.935-66.773-62.004v-93.37l67.442-62.631c36.24 11.967 69.15 32.504 95.996 59.842zM320.365 257.987l-32.61 74.536h-63.52l-32.611-74.536 64.371-59.775 64.37 59.775zm-64.37-242.124c19.519 0 38.828 2.336 57.58 6.95L255.994 76.28l-57.578-53.463c18.743-4.616 38.051-6.954 57.579-6.954zm-75.369 12.075 67.438 62.621v93.371l-66.772 62.004L110.899 199l.878-100.607-27.143-10.617c26.849-27.344 59.756-47.877 95.992-59.838zM73.16 100.319l22.66 8.866-.754 86.48-72.433 3.542c8.809-36.336 26.125-70.248 50.527-98.888zm.908 312.418 4.53-11.577h85.471l4.618 78.609c-36.442-14.221-68.896-37.191-94.619-67.032zm93.948-27.438H67.772l-5.128 13.102c-30.25-41.069-46.783-91.113-46.783-142.394 0-13.702 1.163-27.38 3.454-40.757l81.391-3.981 75.061 50.047 33.966 77.633-41.717 46.35zm159.074 100.14c-22.924 7.1-46.813 10.7-71.096 10.7-24.276 0-48.161-3.601-71.085-10.7l-5.25-89.367 42.92-47.688h66.83l42.931 47.689-5.25 89.366zm16.223-5.67 4.618-78.609h85.471l4.53 11.576c-25.722 29.841-58.176 52.811-94.619 67.033zm106.041-81.367-5.126-13.102H343.983l-41.726-46.352 33.965-77.633 75.06-50.046 81.404 3.981a241.974 241.974 0 0 1 3.454 40.757c-.002 51.281-16.535 101.325-46.786 142.395z"/></svg>